#!OML:ASF X:\für Bonn\!DataBase\2005_08_12_Daniel\c3d\Daniel.ASF
:FULLY-SPECIFIED
:DEGREES
266
root 0.694439 17.51 -1.10672 169.088 -3.42696 -179.4
lowerback 21.6686 -2.32821 4.32336
upperback 7.61095 -3.71179 -1.29151
thorax -4.08369 -2.40402 -2.8838
lowerneck 3.14298 1.07775 -0.457034
upperneck 19.2172 4.60807 -6.07646
head 5.41013 2.64963 -1.585
rclavicle -1.32689e-014 2.18663e-015
rhumerus 148.183 -170.774 -266.001
rradius 16.6509
rwrist 18.5353
rhand -18.0463 15.4592
rfingers 7.12502
rthumb 8.2257 -14.3607
lclavicle -1.32689e-014 2.18663e-015
lhumerus -20.3984 15.9817 85.9925
lradius 34.4161
lwrist -11.0797
lhand -13.8247 -7.3622
lfingers 7.12502
lthumb 12.2981 22.2562
rfemur 5.89212 10.291 26.1049
rtibia 23.1557
rfoot -23.3986 -17.2164
rtoes -8.55629
lfemur 0.402201 -12.0147 -17.4329
ltibia 33.2616
lfoot -23.1966 1.44593
ltoes -14.7982
267
root 0.716041 17.5041 -1.13873 169.063 -3.32582 -179.351
lowerback 21.1846 -2.34615 4.27578
upperback 7.47782 -3.70683 -1.2392
thorax -3.97835 -2.38075 -2.82055
lowerneck 3.3102 1.13673 -0.321078
upperneck 19.2488 4.73694 -6.20956
head 5.40115 2.72771 -1.6466
rclavicle 2.08724e-014 1.47101e-014
rhumerus 148.338 -169.624 -265.564
rradius 16.4713
rwrist 18.9804
rhand -18.2042 15.2737
rfingers 7.12502
rthumb 8.07328 -14.5521
lclavicle 2.08724e-014 1.47101e-014
lhumerus -20.4335 15.6546 86.2447
lradius 34.6067
lwrist -10.8693
lhand -13.5624 -7.43862
lfingers 7.12502
lthumb 12.551 22.1644
rfemur 6.10013 10.6453 26.4146
rtibia 23.1238
rfoot -23.6135 -17.5011
rtoes -8.49436
lfemur 0.545998 -11.8656 -17.2662
ltibia 33.2904
lfoot -23.3554 1.32915
ltoes -14.8483
268
root 0.736959 17.4974 -1.16862 169.058 -3.2155 -179.283
lowerback 20.7456 -2.37524 4.23877
upperback 7.30027 -3.7041 -1.17357
thorax -3.94256 -2.35748 -2.74505
lowerneck 3.61424 1.19886 -0.201452
upperneck 19.2053 4.86543 -6.34784
head 5.34606 2.81019 -1.71021
rclavicle -3.66261e-014 2.54444e-014
rhumerus 148.393 -168.727 -265.196
rradius 16.3833
rwrist 19.1528
rhand -18.3192 15.0461
rfingers 7.12502
rthumb 7.96223 -14.784
lclavicle -3.66261e-014 2.54444e-014
lhumerus -20.5313 15.3059 86.4859
lradius 34.7734
lwrist -10.5589
lhand -13.349 -7.49982
lfingers 7.12502
lthumb 12.7568 22.0905
rfemur 6.26133 10.9849 26.7232
rtibia 23.1059
rfoot -23.8275 -17.7418
rtoes -8.36417
lfemur 0.660305 -11.7362 -17.0888
ltibia 33.3233
lfoot -23.5081 1.28127
ltoes -15.0502
269
root 0.757226 17.4908 -1.19781 169.045 -3.11032 -179.228
lowerback 20.3199 -2.40108 4.21715
upperback 7.14696 -3.70178 -1.12067
thorax -3.88743 -2.33645 -2.69224
lowerneck 3.9039 1.26296 -0.0851328
upperneck 19.1374 4.98845 -6.47841
head 5.28572 2.88859 -1.77138
rclavicle -6.27166e-014 1.43125e-014
rhumerus 148.51 -167.817 -264.863
rradius 16.2492
rwrist 19.333
rhand -18.4653 14.8383
rfingers 7.12502
rthumb 7.82129 -14.997
lclavicle -6.27166e-014 1.43125e-014
lhumerus -20.6209 14.9673 86.731
lradius 34.9531
lwrist -10.3422
lhand -13.1091 -7.56888
lfingers 7.12502
lthumb 12.988 22.0068
rfemur 6.43058 11.3185 27.0231
rtibia 23.0963
rfoot -24.0164 -18.0036
rtoes -8.21309
lfemur 0.778622 -11.604 -16.9227
ltibia 33.366
lfoot -23.6657 1.18805
ltoes -15.182
270
root 0.775533 17.4851 -1.22549 169.053 -3.00768 -179.179
lowerback 19.9199 -2.43744 4.18797
upperback 6.98044 -3.71214 -1.04725
thorax -3.85786 -2.32227 -2.60875
lowerneck 4.20484 1.33698 -0.0114219
upperneck 19.0405 5.11989 -6.60612
head 5.21449 2.96856 -1.82498
rclavicle 2.39536e-014 -7.95139e-015
rhumerus 148.627 -167.252 -264.635
rradius 16.2027
rwrist 19.155
rhand -18.6225 14.5208
rfingers 7.12502
rthumb 7.66954 -15.3201
lclavicle 2.39536e-014 -7.95139e-015
lhumerus -20.7238 14.6682 86.9937
lradius 35.1031
lwrist -10.1651
lhand -12.9204 -7.60676
lfingers 7.12502
lthumb 13.1699 21.9573
rfemur 6.5689 11.6221 27.2934
rtibia 23.09
rfoot -24.2029 -18.2366
rtoes -8.17195
lfemur 0.868853 -11.4927 -16.7733
ltibia 33.4074
lfoot -23.814 1.13839
ltoes -15.2455
271
root 0.793147 17.4782 -1.25229 169.054 -2.89961 -179.108
lowerback 19.5472 -2.47295 4.20319
upperback 6.80942 -3.71341 -0.979265
thorax -3.84775 -2.30413 -2.55716
lowerneck 4.57289 1.39546 0.100995
upperneck 18.9272 5.23209 -6.74099
head 5.12749 3.04491 -1.88975
rclavicle 2.72087e-014 -4.37326e-015
rhumerus 148.725 -166.618 -264.394
rradius 16.1447
rwrist 19.0705
rhand -18.7796 14.2967
rfingers 7.12502
rthumb 7.51787 -15.5497
lclavicle 2.72087e-014 -4.37326e-015
lhumerus -20.8274 14.3677 87.2532
lradius 35.1773
lwrist -10.0605
lhand -12.7893 -7.65757
lfingers 7.12502
lthumb 13.2963 21.8983
rfemur 6.70931 11.8904 27.5695
rtibia 23.0762
rfoot -24.3887 -18.4058
rtoes -8.03944
lfemur 0.962308 -11.3908 -16.6045
ltibia 33.4597
lfoot -23.9533 1.07832
ltoes -15.3033
272
root 0.808851 17.4732 -1.27751 169.05 -2.79423 -179.056
lowerback 19.121 -2.50236 4.22311
upperback 6.73735 -3.73087 -0.929961
thorax -3.7048 -2.29844 -2.53066
lowerneck 4.76775 1.47451 0.227039
upperneck 18.8153 5.35357 -6.86294
head 5.07015 3.11574 -1.94964
rclavicle -1.97045e-014 5.26779e-015
rhumerus 149.015 -165.887 -264.188
rradius 16.0575
rwrist 19.1565
rhand -18.9155 14.0952
rfingers 7.12502
rthumb 7.38675 -15.7559
lclavicle -1.97045e-014 5.26779e-015
lhumerus -20.7427 14.0997 87.5003
lradius 35.2003
lwrist -10.0109
lhand -12.6311 -7.75884
lfingers 7.12502
lthumb 13.4488 21.787
rfemur 6.84389 12.1596 27.8209
rtibia 23.0691
rfoot -24.5256 -18.5894
rtoes -7.89468
lfemur 1.053 -11.2813 -16.4642
ltibia 33.5098
lfoot -24.1121 1.03625
ltoes -15.3549
